<svg xmlns="http://www.w3.org/2000/svg" version="1.1" xmlns:xlink="http://www.w3.org/1999/xlink" xmlns:svgjs="http://svgjs.com/svgjs" width="1440" height="560" preserveAspectRatio="none" viewBox="0 0 1440 560"><g mask="url(&quot;#SvgjsMask1851&quot;)" fill="none"><rect width="1440" height="560" x="0" y="0" fill="url(#SvgjsLinearGradient1852)"></rect><path d="M601.51 608.07C758.94 593.21 834.71 277.26 1131.13 262.27 1427.56 247.28 1520.09 74.73 1660.76 71.87" stroke="rgba(21, 43, 92, 0.74)" stroke-width="2"></path><path d="M74.36 581.9C256.28 581.52 423.53 467.41 792.62 465.09 1161.71 462.77 1322.8 243.67 1510.88 241.09" stroke="rgba(21, 43, 92, 0.74)" stroke-width="2"></path><path d="M655.57 586.93C758.25 571.67 703.01 344.82 979.94 327.69 1256.87 310.56 1452.68 58.86 1628.69 53.29" stroke="rgba(21, 43, 92, 0.74)" stroke-width="2"></path><path d="M283.36 588.46C478.43 579.19 612.66 249.52 983.71 242.45 1354.76 235.38 1505.23 97.62 1684.06 96.85" stroke="rgba(21, 43, 92, 0.74)" stroke-width="2"></path><path d="M449.44 671.12C575.97 657.37 651.47 382.72 867.73 380.89 1083.99 379.06 1076.87 450.89 1286.01 450.89 1495.16 450.89 1598.27 381.13 1704.3 380.89" stroke="rgba(21, 43, 92, 0.74)" stroke-width="2"></path></g><defs><mask id="SvgjsMask1851"><rect width="1440" height="560" fill="#ffffff"></rect></mask><linearGradient x1="0%" y1="50%" x2="100%" y2="50%" gradientUnits="userSpaceOnUse" id="SvgjsLinearGradient1852"><stop stop-color="rgba(117, 130, 144, 1)" offset="0"></stop><stop stop-color="rgba(255, 255, 255, 1)" offset="1"></stop></linearGradient></defs></svg>